<?xml version="1.0" encoding="utf-8"?>
<!-- Generator: Adobe Illustrator 16.0.4, SVG Export Plug-In . SVG Version: 6.00 Build 0)  -->
<!DOCTYPE svg PUBLIC "-//W3C//DTD SVG 1.1//EN" "http://www.w3.org/Graphics/SVG/1.1/DTD/svg11.dtd">
<svg version="1.1" id="Layer_1" xmlns="http://www.w3.org/2000/svg" xmlns:xlink="http://www.w3.org/1999/xlink" x="0px" y="0px"
	 width="100px" height="100px" viewBox="0 0 100 100" enable-background="new 0 0 100 100" xml:space="preserve">
<path id="circle_2_" fill="#8C8C8C" d="M50.508,19.781c17.629,0,31.973,14.343,31.973,31.973c0,17.628-14.344,31.971-31.973,31.971
	S18.535,69.382,18.535,51.754C18.535,34.123,32.878,19.781,50.508,19.781 M50.508,16.229c-19.62,0-35.524,15.905-35.524,35.525
	s15.904,35.523,35.524,35.523c19.621,0,35.525-15.903,35.525-35.523S70.127,16.229,50.508,16.229L50.508,16.229z"/>
<g>
	<path fill-rule="evenodd" clip-rule="evenodd" fill="#8C8C8C" d="M47.051,67.941c0.004-0.086,0.012-0.172,0.012-0.257
		c0.001-4.771,0.001-9.542,0-14.312c0-0.059-0.006-0.115-0.01-0.19c-0.085,0-0.157,0-0.228,0c-1.496,0-2.991,0-4.486,0
		c-0.263,0-0.263,0-0.263-0.272c0-1.746,0-3.493,0-5.241c0-0.262,0-0.263,0.256-0.263c1.489,0,2.978,0,4.467,0
		c0.078,0,0.157,0,0.255,0c0.004-0.077,0.01-0.141,0.011-0.204c0.003-1.476-0.004-2.951,0.011-4.427
		c0.013-1.26,0.272-2.473,0.85-3.599c0.931-1.817,2.439-2.892,4.406-3.367c1.225-0.296,2.468-0.257,3.71-0.214
		c0.773,0.028,1.544,0.087,2.316,0.134c0.099,0.006,0.197,0.02,0.296,0.032c0.282,0.035,0.282,0.036,0.282,0.329
		c0,1.547-0.002,3.096,0.005,4.645c0.001,0.189-0.046,0.249-0.241,0.247c-0.913-0.01-1.826-0.014-2.739,0
		c-0.389,0.006-0.782,0.03-1.164,0.098c-0.94,0.167-1.51,0.762-1.656,1.706c-0.045,0.287-0.076,0.579-0.078,0.868
		c-0.009,1.191-0.004,2.382-0.003,3.573c0,0.051,0.006,0.103,0.01,0.179c0.087,0,0.164,0,0.241,0c1.721,0,3.441,0,5.162,0
		c0.278,0,0.277,0,0.242,0.276c-0.229,1.763-0.461,3.525-0.682,5.29c-0.021,0.17-0.083,0.214-0.249,0.213
		c-1.489-0.006-2.978-0.003-4.466-0.003c-0.079,0-0.156,0-0.26,0c0,0.102,0,0.186,0,0.27c0,4.737,0,9.475-0.001,14.213
		c0,0.093-0.006,0.185-0.01,0.277C51.048,67.941,49.049,67.941,47.051,67.941z"/>
</g>
</svg>
