<?xml version="1.0" encoding="utf-8"?>
<!-- Generator: Adobe Illustrator 16.0.4, SVG Export Plug-In . SVG Version: 6.00 Build 0)  -->
<!DOCTYPE svg PUBLIC "-//W3C//DTD SVG 1.1//EN" "http://www.w3.org/Graphics/SVG/1.1/DTD/svg11.dtd">
<svg version="1.1" id="Layer_1" xmlns="http://www.w3.org/2000/svg" xmlns:xlink="http://www.w3.org/1999/xlink" x="0px" y="0px"
	 width="100px" height="100px" viewBox="0 0 100 100" enable-background="new 0 0 100 100" xml:space="preserve">
<path id="circle_1_" fill="#8C8C8C" d="M50.938,19.73c17.629,0,31.974,14.343,31.974,31.973c0,17.628-14.345,31.971-31.974,31.971
	c-17.628,0-31.972-14.343-31.972-31.971C18.966,34.072,33.309,19.73,50.938,19.73 M50.938,16.178
	c-19.62,0-35.523,15.905-35.523,35.525s15.904,35.523,35.523,35.523c19.621,0,35.525-15.903,35.525-35.523
	S70.559,16.178,50.938,16.178L50.938,16.178z"/>
<g id="skRK7t_1_">
	<g>
		<path fill="#8C8C8C" d="M59.447,39.82c0.951,0.279,1.787,0.769,2.504,1.461c0.094,0.091,0.266,0.193,0.367,0.166
			c0.666-0.173,1.334-0.348,1.979-0.587c0.583-0.215,1.137-0.514,1.719-0.782c-0.475,1.403-1.363,2.467-2.576,3.286
			c1.17-0.126,2.275-0.438,3.381-0.888c-0.557,0.924-1.842,2.275-2.834,2.978c-0.131,0.092-0.168,0.184-0.172,0.342
			c-0.021,0.82-0.018,1.645-0.103,2.459c-0.269,2.568-1.108,4.952-2.413,7.173c-0.764,1.303-1.686,2.484-2.759,3.549
			c-1.235,1.223-2.625,2.229-4.177,3.01c-1.7,0.854-3.496,1.389-5.382,1.648c-1.788,0.248-3.573,0.251-5.351-0.031
			c-2.123-0.338-4.126-1.045-5.989-2.127c-0.181-0.104-0.354-0.219-0.585-0.36c3.361,0.297,6.32-0.548,8.945-2.558
			c-1.295-0.086-2.473-0.475-3.503-1.25c-1.021-0.771-1.758-1.752-2.158-3.013c0.931,0.155,1.797,0.14,2.657-0.124
			c-1.391-0.357-2.567-1.051-3.468-2.17c-0.903-1.123-1.357-2.408-1.349-3.874c1.15,0.522,2.179,0.785,2.717,0.688
			c-1.305-0.931-2.172-2.145-2.517-3.688c-0.347-1.547-0.144-3.025,0.652-4.423c3.345,3.915,7.545,6.042,12.598,6.387
			c-0.021-0.71-0.103-1.385-0.039-2.046c0.119-1.291,0.622-2.438,1.492-3.414c0.86-0.964,1.912-1.609,3.175-1.897
			C56.26,39.734,57.562,39.354,59.447,39.82z"/>
	</g>
</g>
</svg>
