<?xml version="1.0" encoding="utf-8"?>
<!-- Generator: Adobe Illustrator 16.0.4, SVG Export Plug-In . SVG Version: 6.00 Build 0)  -->
<!DOCTYPE svg PUBLIC "-//W3C//DTD SVG 1.1//EN" "http://www.w3.org/Graphics/SVG/1.1/DTD/svg11.dtd">
<svg version="1.1" id="Layer_1" xmlns="http://www.w3.org/2000/svg" xmlns:xlink="http://www.w3.org/1999/xlink" x="0px" y="0px"
	 width="71.049px" height="71.048px" viewBox="14.984 16.229 71.049 71.048" enable-background="new 14.984 16.229 71.049 71.048"
	 xml:space="preserve">
<path id="circle_2_" d="M50.508,19.781c17.629,0,31.973,14.343,31.973,31.973c0,17.628-14.344,31.971-31.973,31.971
	S18.535,69.382,18.535,51.754C18.535,34.123,32.878,19.781,50.508,19.781 M50.508,16.229c-19.62,0-35.524,15.905-35.524,35.525
	s15.904,35.523,35.524,35.523c19.621,0,35.525-15.903,35.525-35.523S70.127,16.229,50.508,16.229L50.508,16.229z"/>
<g>
	<path d="M47.051,67.941c0.004-0.086,0.012-0.172,0.012-0.258c0.001-4.771,0.001-9.541,0-14.312c0-0.06-0.006-0.115-0.01-0.19
		c-0.085,0-0.157,0-0.228,0c-1.496,0-2.991,0-4.486,0c-0.263,0-0.263,0-0.263-0.271c0-1.746,0-3.493,0-5.241
		c0-0.262,0-0.263,0.256-0.263c1.489,0,2.978,0,4.467,0c0.078,0,0.157,0,0.255,0c0.004-0.077,0.01-0.141,0.011-0.204
		c0.003-1.476-0.004-2.951,0.011-4.427c0.013-1.26,0.272-2.473,0.85-3.599c0.931-1.817,2.439-2.892,4.406-3.367
		c1.225-0.296,2.468-0.257,3.71-0.214c0.772,0.028,1.544,0.087,2.315,0.134c0.1,0.006,0.197,0.02,0.297,0.032
		c0.281,0.035,0.281,0.036,0.281,0.329c0,1.547-0.002,3.096,0.006,4.645c0,0.189-0.047,0.249-0.241,0.247
		c-0.913-0.01-1.826-0.014-2.739,0c-0.389,0.006-0.781,0.03-1.164,0.098c-0.939,0.167-1.51,0.762-1.656,1.706
		c-0.045,0.287-0.076,0.579-0.078,0.868c-0.008,1.191-0.004,2.382-0.002,3.573c0,0.051,0.006,0.103,0.01,0.179
		c0.087,0,0.164,0,0.24,0c1.722,0,3.441,0,5.162,0c0.278,0,0.277,0,0.242,0.276c-0.229,1.763-0.461,3.525-0.682,5.291
		c-0.021,0.17-0.083,0.213-0.249,0.213c-1.489-0.006-2.978-0.004-4.466-0.004c-0.08,0-0.156,0-0.26,0c0,0.103,0,0.187,0,0.271
		c0,4.737,0,9.475-0.002,14.213c0,0.093-0.006,0.185-0.01,0.276C51.048,67.941,49.049,67.941,47.051,67.941z"/>
</g>
</svg>
