<?xml version="1.0" encoding="utf-8"?>
<!-- Generator: Adobe Illustrator 16.0.4, SVG Export Plug-In . SVG Version: 6.00 Build 0)  -->
<!DOCTYPE svg PUBLIC "-//W3C//DTD SVG 1.1//EN" "http://www.w3.org/Graphics/SVG/1.1/DTD/svg11.dtd">
<svg version="1.1" id="Layer_1" xmlns="http://www.w3.org/2000/svg" xmlns:xlink="http://www.w3.org/1999/xlink" x="0px" y="0px" width="443px" height="385px" viewBox="0 0 443 385" enable-background="new 0 0 443 385" xml:space="preserve">
    <path d="M121,1c1.667,0,3.333,0,5,0c5.734,0.74,11.486,1.366,17.201,2.24c33.26,5.087,58.772,21.837,76.158,50.762
        c0.731,1.218,1.509,2.407,2.547,4.057c0.928-1.227,1.58-1.919,2.043-2.721c16.162-28.069,40.24-45.081,71.953-51.232
        C303.194,2.69,310.63,2.016,318,1c1.333,0,2.667,0,4,0c7.061,0.909,14.202,1.409,21.168,2.796
        c39.194,7.799,66.74,30.874,83.199,66.58c20.914,45.369,20.316,91.93,3.513,138.38c-12.252,33.866-34.376,61.058-60.82,84.85
        c-42.696,38.414-92.45,65.553-144.289,89.232c-1.67,0.763-4.295,0.544-6.058-0.203c-6.583-2.787-13.038-5.893-19.459-9.045
        c-43.635-21.419-85.604-45.502-122.123-78.014C35.987,258.948,7.267,215.51,2.933,158.806
        c-2.525-33.038,1.709-64.805,17.531-94.308c17.425-32.493,43.803-53.516,80.4-60.727C107.5,2.464,114.284,1.904,121,1z"></path>
</svg>
